<svg width="45" height="45" viewBox="0 0 45 45" fill="none" xmlns="http://www.w3.org/2000/svg">
<path d="M37.8947 0C39.151 0 40.3559 0.592632 41.2442 1.64752C42.1325 2.70242 42.6316 4.13316 42.6316 5.625V8.4375H28.4211C25.2803 8.4375 22.2682 9.91908 20.0474 12.5563C17.8266 15.1935 16.5789 18.7704 16.5789 22.5C16.5789 26.2296 17.8266 29.8065 20.0474 32.4437C22.2682 35.0809 25.2803 36.5625 28.4211 36.5625H42.6316V39.375C42.6316 40.8668 42.1325 42.2976 41.2442 43.3525C40.3559 44.4074 39.151 45 37.8947 45H4.73684C3.48055 45 2.27572 44.4074 1.38739 43.3525C0.499059 42.2976 0 40.8668 0 39.375V5.625C0 4.13316 0.499059 2.70242 1.38739 1.64752C2.27572 0.592632 3.48055 0 4.73684 0H37.8947ZM40.2632 14.0625C41.5194 14.0625 42.7243 14.6551 43.6126 15.71C44.5009 16.7649 45 18.1957 45 19.6875V25.3125C45 26.8043 44.5009 28.2351 43.6126 29.29C42.7243 30.3449 41.5194 30.9375 40.2632 30.9375H28.4211C26.5366 30.9375 24.7294 30.0486 23.3969 28.4662C22.0644 26.8839 21.3158 24.7378 21.3158 22.5C21.3158 20.2622 22.0644 18.1161 23.3969 16.5338C24.7294 14.9514 26.5366 14.0625 28.4211 14.0625H40.2632ZM28.4211 19.6875C27.7929 19.6875 27.1905 19.9838 26.7463 20.5113C26.3022 21.0387 26.0526 21.7541 26.0526 22.5C26.0526 23.2459 26.3022 23.9613 26.7463 24.4887C27.1905 25.0162 27.7929 25.3125 28.4211 25.3125C29.0492 25.3125 29.6516 25.0162 30.0958 24.4887C30.5399 23.9613 30.7895 23.2459 30.7895 22.5C30.7895 21.7541 30.5399 21.0387 30.0958 20.5113C29.6516 19.9838 29.0492 19.6875 28.4211 19.6875Z" fill="#F88160"/>
</svg>

